<?xml version="1.0" encoding="utf-8"?>
<!DOCTYPE svg PUBLIC "-//W3C//DTD SVG 1.1//EN" "http://www.w3.org/Graphics/SVG/1.1/DTD/svg11.dtd">
<svg version="1.1" id="图形" xmlns="http://www.w3.org/2000/svg" xmlns:xlink="http://www.w3.org/1999/xlink" x="0px" y="0px" width="1024px" height="1024px" viewBox="0 0 1024 1024" enable-background="new 0 0 1024 1024" xml:space="preserve">
  <path fill="#272636" d="M204.3904 499.2704c9.8304 5.12 22.1184 1.2288 27.0336-8.8064 1.4336-2.6624 117.1456-224.8704 318.6688-346.3168 139.4688-84.1728 281.8048-150.7328 359.424-185.1392 6.9632 27.2384-14.1312 39.1168-74.5472 99.5328-35.4304 35.4304-87.04 100.7616-141.7216 167.3216-55.0912-19.2512-123.0848-20.2752-137.0112-20.2752-0.4096 0-0.8192 0-1.2288 0-11.0592 0-20.0704 9.0112-20.0704 20.2752 0 11.0592 9.0112 20.0704 20.0704 20.0704 0 0 0 0 0.2048 0 2.2528 0 34.2016 0.2048 70.2464 5.5296 14.5408 2.2528 27.8528 4.9152 39.7312 8.192-13.7216 16.384-27.4432 32.5632-40.96 47.9232-27.8528-3.2768-57.1392-4.3008-83.3536-4.3008-47.9232 0-86.2208 3.4816-89.2928 3.8912-11.0592 1.024-19.2512 10.8544-18.0224 21.9136 1.024 11.0592 10.8544 19.2512 21.9136 18.2272 1.024 0 68.1984-6.3488 134.9632-2.2528-22.7328 24.1664-44.4416 45.4656-64.3072 61.2352-95.232 76.5952-234.9056 137.0112-327.4752 132.9152l-52.4288 135.168c-3.2768 8.6016-12.9024 13.1072-21.7088 10.24-9.4208-3.072-14.336-13.5168-10.6496-22.7328l52.4288-135.9872c0 0-144.9984-212.1728 139.6736-426.8032 250.4704-189.0304 505.2416-201.3184 577.1264-172.2368-80.6912 36.0448-218.7264 101.5808-354.0992 183.0912-211.968 127.5904-328.9088 352.8704-333.824 362.496C190.6688 482.0672 194.56 494.1504 204.3904 499.2704z" transform="translate(0, 812) scale(1, -1)"/>
</svg>
