<?xml version="1.0" encoding="utf-8"?>
<!DOCTYPE svg PUBLIC "-//W3C//DTD SVG 1.1//EN" "http://www.w3.org/Graphics/SVG/1.1/DTD/svg11.dtd">
<svg version="1.1" id="图形" xmlns="http://www.w3.org/2000/svg" xmlns:xlink="http://www.w3.org/1999/xlink" x="0px" y="0px" width="1024px" height="1024px" viewBox="0 0 1024 1024" enable-background="new 0 0 1024 1024" xml:space="preserve">
  <path fill="#272636" d="M846.6432 251.0528c13.7216-9.8304 24.7808-16.9984 24.7808-16.9984S860.3648 242.4512 846.6432 251.0528zM948.0192 260.8832c0 0-73.9328 58.368-77.6192 72.704-4.096 14.336 57.9584-4.7104 57.9584-4.7104S860.16 360.416 858.9312 369.632c-1.2288 8.8064 45.2608-10.4448 45.2608-10.4448s-63.488 52.0192-79.0528 9.6256C774.5536 273.5808 669.9008 220.128 547.2256 202.5152c-122.6752-18.0224-212.992 7.9872-287.3344 28.8768C162.2016 258.8352 84.7872 210.0928 0 252.4864c19.6608-15.5648 41.984-30.72 107.1104-30.3104 21.504 0 91.9552 3.2768 104.6528-7.9872 12.6976-11.6736-43.6224-64.7168-43.6224-64.7168s95.4368 80.6912 104.6528 53.248c5.5296-16.7936-27.648-62.6688-27.648-62.6688s33.1776 45.2608 57.9584 54.6816c17.2032 6.7584 31.1296 5.9392 43.6224-11.264 7.9872-11.6736-38.7072-66.3552-38.7072-66.3552s63.0784 61.2352 74.3424 57.9584c11.264-3.2768 0-57.9584 0-57.9584s23.1424 55.5008 35.6352 59.5968c16.7936 5.5296-38.7072-129.024-38.7072-129.024s67.9936 124.7232 80.6912 127.5904c21.9136 4.7104 36.4544-87.04 36.4544-87.04s-10.8544 80.2816 0.8192 85.6064c72.2944 32.768 30.72-138.6496 30.72-138.6496s47.5136 116.3264 18.432 142.336c76.3904-50.7904 67.1744-142.336 67.1744-142.336s20.0704 43.2128-36.4544 150.3232c30.72 1.6384 76.3904-79.0528 76.3904-79.0528s-49.9712 88.6784-15.9744 90.3168c67.584 3.2768 74.3424-117.9648 74.3424-117.9648s20.48 16.7936-33.9968 135.9872c34.4064 21.9136 117.9648-109.9776 117.9648-109.9776S719.0528 232.416 731.3408 241.2224c12.288 8.3968 57.9584-40.7552 57.9584-40.7552S755.0976 247.9808 764.1088 252.896c9.216 4.7104 100.7616-94.4128 100.7616-94.4128S784.1792 255.1488 798.1056 267.232c7.9872 6.7584 30.5152-4.9152 48.3328-16.1792-25.6 18.432-60.2112 45.6704-48.3328 51.6096 24.7808 12.6976 95.0272-30.72 95.0272-30.72s-42.3936 34.816-35.6352 43.6224C864.4608 324.3712 948.0192 260.8832 948.0192 260.8832zM914.0224 430.6624C955.5968 455.0336 987.136 514.2208 987.136 514.2208s-80.6912-83.5584-136.6016-71.0656C900.9152 483.0912 925.696 551.904 925.696 551.904s-64.3072-99.1232-104.2432-103.2192c46.2848 41.1648 65.536 99.1232 65.536 99.1232s-52.8384-77.6192-93.5936-82.7392C848.4864 514.6304 850.5344 545.76 850.5344 545.76S774.144 447.8656 743.8336 463.0208c36.4544 39.5264 61.6448 90.3168 61.6448 90.3168s-63.488-86.016-80.6912-71.8848c-12.0832 2.048 19.2512 40.7552 19.2512 40.7552S705.1264 487.8016 694.272 495.3792c19.6608 12.0832 52.8384 70.0416 52.8384 70.0416s-64.7168-74.3424-80.6912-65.536l31.1296 63.0784c0 0-31.1296-63.0784-73.1136-52.4288 19.2512 24.7808 26.8288 47.5136 26.8288 47.5136s-31.9488-51.6096-71.8848-37.4784c-9.216 3.6864 11.6736 27.2384 11.6736 27.2384s-26.8288-26.0096-45.2608-22.7328c-18.0224 3.6864 1.2288 36.864 1.2288 36.864S514.4576 511.3536 507.904 513.4016c-6.3488 2.4576 3.2768 35.6352 3.2768 35.6352s-23.9616-38.7072-36.864-36.864c-12.288 2.2528-0.8192 37.6832 0 39.936-0.8192-2.4576-14.336-41.7792-24.7808-38.7072-10.8544 3.2768-12.6976 28.0576-12.6976 28.0576s-3.2768-33.9968-18.432-36.864C302.08 482.272 174.2848 432.7104 13.9264 272.352 121.0368 330.3104 182.6816 407.1104 309.6576 451.1424 305.3568 436.192 303.104 420.4224 303.104 404.0384c0-97.6896 87.2448-176.9472 179.2-176.9472 91.5456 0 172.4416 79.2576 179.2 176.9472 1.6384 25.3952-4.7104 49.5616-15.1552 71.4752C770.048 451.552 834.1504 394.0032 859.3408 392.7744 960.512 388.2688 1024 486.1632 1024 486.1632S960.512 413.0496 914.0224 430.6624zM504.2176 304.3008c-34.4064 0-62.2592 27.8528-62.2592 62.2592s27.8528 62.2592 62.2592 62.2592 62.2592-27.8528 62.2592-62.2592S538.624 304.3008 504.2176 304.3008zM474.3168 552.1088C474.3168 552.1088 474.5216 552.1088 474.3168 552.1088 474.5216 552.1088 474.3168 552.1088 474.3168 552.1088z" transform="translate(0, 812) scale(1, -1)"/>
</svg>
