<?xml version="1.0" encoding="utf-8"?>
<!DOCTYPE svg PUBLIC "-//W3C//DTD SVG 1.1//EN" "http://www.w3.org/Graphics/SVG/1.1/DTD/svg11.dtd">
<svg version="1.1" id="图形" xmlns="http://www.w3.org/2000/svg" xmlns:xlink="http://www.w3.org/1999/xlink" x="0px" y="0px" width="1024px" height="1024px" viewBox="0 0 1024 1024" enable-background="new 0 0 1024 1024" xml:space="preserve">
  <path fill="#272636" d="M897.843 287.386l-89.498 21.299-160.973 131.482-176.128-66.765-53.658 71.27 80.896 82.739h77.619l31.13-25.805v25.805h60.826l-14.95 34.406-178.586 28.467-160.154-102.4-0.41 113.459-114.483-29.286v-76.186l28.262-38.707-83.354-28.058-31.744-34.406v-91.136l45.261-19.456v53.043l19.456-15.565v36.25h44.032l82.125-123.494 30.515-8.397 41.37-171.008 21.299-8.397 12.288-71.885h95.232l-30.31 245.965 161.792 105.472 87.859-74.342 21.504 8.397 7.782-22.733 158.515 14.336z" transform="translate(0, 812) scale(1, -1)"/>
</svg>
