<?xml version="1.0" encoding="utf-8"?>
<!DOCTYPE svg PUBLIC "-//W3C//DTD SVG 1.1//EN" "http://www.w3.org/Graphics/SVG/1.1/DTD/svg11.dtd">
<svg version="1.1" id="图形" xmlns="http://www.w3.org/2000/svg" xmlns:xlink="http://www.w3.org/1999/xlink" x="0px" y="0px" width="1024px" height="1024px" viewBox="0 0 1024 1024" enable-background="new 0 0 1024 1024" xml:space="preserve">
  <path fill="#272636" d="M513.2288 684C301.056 684 129.2288 511.968 129.2288 300c0-212.1728 172.032-384 384-384 211.968 0 384 172.032 384 384C897.2288 511.968 725.1968 684 513.2288 684zM772.7104 232.6208c0-22.9376-13.5168-43.6224-39.5264-48.128-45.2608-7.9872-140.288-12.6976-219.9552-12.6976-79.6672 0-174.6944 4.9152-219.9552 12.6976-26.0096 4.5056-39.5264 25.1904-39.5264 48.128 0 49.9712 0 99.9424 0 149.9136 0 22.9376 17.8176 44.4416 39.5264 48.128C306.5856 433.12 337.7152 435.3728 362.0864 435.168c9.216 0 16.5888-7.168 16.5888-18.2272 0 0 0-104.8576 0-104.8576 46.8992 0.2048 87.4496 2.8672 134.3488 2.8672 46.8992 0 87.6544-2.6624 134.3488-2.8672 0 0 0 104.8576 0 104.8576 0 11.0592 7.3728 18.2272 16.5888 18.2272 24.3712 0 55.5008-2.048 69.0176-4.5056 21.9136-3.6864 39.5264-25.1904 39.5264-48.128C772.7104 332.768 772.7104 282.592 772.7104 232.6208z" transform="translate(0, 812) scale(1, -1)"/>
</svg>
