<?xml version="1.0" encoding="utf-8"?>
<!DOCTYPE svg PUBLIC "-//W3C//DTD SVG 1.1//EN" "http://www.w3.org/Graphics/SVG/1.1/DTD/svg11.dtd">
<svg version="1.1" id="图形" xmlns="http://www.w3.org/2000/svg" xmlns:xlink="http://www.w3.org/1999/xlink" x="0px" y="0px" width="1024px" height="1024px" viewBox="0 0 1024 1024" enable-background="new 0 0 1024 1024" xml:space="preserve">
  <path fill="#272636" d="M531.0464 417.1456l100.352 0 0-102.6048 50.7904 0c23.552 0 47.5136 4.096 69.8368 11.6736 10.8544 3.6864 23.1424 8.8064 33.9968 15.36-14.1312 18.432-21.504 41.984-23.552 64.9216-2.8672 31.3344 3.4816 72.0896 24.576 96.6656l10.6496 12.288 12.4928-10.0352c31.744-25.3952 58.368-61.0304 63.0784-101.5808 38.0928 11.264 82.944 8.6016 116.5312-10.8544l13.7216-7.9872-7.168-14.1312c-28.4672-55.5008-87.8592-72.704-146.0224-69.632-87.04-216.6784-276.2752-319.0784-505.856-319.0784-118.5792 0-227.328 44.2368-289.3824 149.504l-1.024 1.6384-9.0112 18.432c-20.8896 46.2848-27.8528 97.0752-23.1424 147.6608l1.4336 15.1552 85.8112 0L109.1584 417.1456l100.352 0 0 100.352 200.9088 0 0 100.352 120.4224 0L530.8416 417.1456z" transform="translate(0, 812) scale(1, -1)"/>
</svg>
