<?xml version="1.0" encoding="utf-8"?>
<!DOCTYPE svg PUBLIC "-//W3C//DTD SVG 1.1//EN" "http://www.w3.org/Graphics/SVG/1.1/DTD/svg11.dtd">
<svg version="1.1" id="图形" xmlns="http://www.w3.org/2000/svg" xmlns:xlink="http://www.w3.org/1999/xlink" x="0px" y="0px" width="1024px" height="1024px" viewBox="0 0 1024 1024" enable-background="new 0 0 1024 1024" xml:space="preserve">
  <path fill="#272636" d="M749.568 122.2336c0 34.816 0 48.3328 0 48.3328S750.7968 226.272 705.7408 226.272s-52.0192 0-52.0192 0L653.7216 173.024 679.936 173.024c0 0 19.2512-0.8192 19.2512-25.3952 0-24.576 0-51.4048 0-51.4048s3.2768-31.3344 39.3216-31.3344c0 0-39.7312-2.2528-39.7312-38.7072s0-42.8032 0-42.8032 2.2528-27.648-22.3232-27.648c-24.576 0-368.2304 0-368.2304 0s-20.48 0.6144-20.48 29.4912 0 288.3584 0 288.3584 0.6144 39.5264-40.96 39.5264c0 0 41.1648 2.8672 41.1648 34.6112s0 121.856 0 121.856 2.2528 22.3232 22.1184 22.3232c19.8656 0 22.528-0.2048 22.528-0.2048l0 51.2-54.8864 0c0 0-39.7312 0-39.7312-52.224 0-52.224 0-121.0368 0-121.0368S237.3632 336.2496 204.8 336.2496l0-47.5136 14.7456 0c0 0 18.0224 1.024 18.0224-21.504 0-22.528 0-310.6816 0-310.6816s-1.6384-52.0192 46.4896-52.0192c48.128 0 422.2976 0 422.2976 0s42.8032 2.8672 42.8032 52.0192 0 55.296 0 55.296-0.2048 30.3104 33.3824 30.3104l0 45.8752C782.5408 88.032 749.568 87.4176 749.568 122.2336zM419.84 261.088l-85.4016-149.2992c0 0 0 0 0 0l-22.3232-38.912c0 0-6.3488-10.24 36.2496-34.816 42.5984-24.3712 50.7904-15.1552 50.7904-15.1552l4.5056 7.9872c0 0 0 0 0 0l116.3264 202.5472 4.096 6.7584c20.2752-5.9392 41.7792-9.0112 63.8976-9.0112 89.9072 0 167.7312 51.6096 205.4144 126.976C809.7792 389.9072 819.2 425.952 819.2 464.2496c0 91.5456-53.4528 170.5984-131.072 207.4624-30.72 15.36-65.3312 23.7568-101.9904 23.7568C459.3664 695.4688 356.5568 592.6592 356.5568 465.888c0-26.0096 4.3008-50.9952 12.288-74.3424 12.6976-39.936 36.0448-75.3664 66.7648-102.6048L419.84 261.088C419.84 261.2928 419.84 261.088 419.84 261.088zM423.7312 463.4304c0 91.5456 74.1376 165.888 165.888 165.888 91.5456 0 165.888-74.1376 165.888-165.888 0-91.5456-74.1376-165.888-165.888-165.888C497.8688 297.5424 423.7312 371.68 423.7312 463.4304z" transform="translate(0, 812) scale(1, -1)"/>
</svg>
