<?xml version="1.0" encoding="utf-8"?>
<!DOCTYPE svg PUBLIC "-//W3C//DTD SVG 1.1//EN" "http://www.w3.org/Graphics/SVG/1.1/DTD/svg11.dtd">
<svg version="1.1" id="图形" xmlns="http://www.w3.org/2000/svg" xmlns:xlink="http://www.w3.org/1999/xlink" x="0px" y="0px" width="1024px" height="1024px" viewBox="0 0 1024 1024" enable-background="new 0 0 1024 1024" xml:space="preserve">
  <path fill="#272636" d="M671.5392 251.6672c-35.0208 0-66.3552-15.5648-87.8592-39.936l-55.0912 38.912c5.9392 15.9744 9.216 33.3824 9.216 51.4048 0 17.8176-3.2768 34.816-8.8064 50.5856l54.8864 38.5024c21.504-24.1664 52.6336-39.7312 87.6544-39.7312 64.512 0 116.9408 52.4288 116.9408 116.9408s-52.4288 116.9408-116.9408 116.9408-116.9408-52.4288-116.9408-116.9408c0-11.4688 1.8432-22.7328 4.9152-33.1776L504.4224 396.6656C481.4848 425.1328 448.3072 444.9984 410.8288 451.1424l0 66.1504C463.872 528.5568 503.808 575.6608 503.808 631.776c0 64.512-52.4288 116.9408-116.9408 116.9408s-116.9408-52.4288-116.9408-116.9408c0-55.5008 38.912-101.9904 90.9312-114.0736l0-66.9696C289.5872 438.4448 235.52 376.5952 235.52 302.048c0-74.752 54.6816-136.8064 125.952-148.8896l0-70.8608c-52.4288-11.4688-91.9552-58.368-91.9552-114.2784 0-64.512 52.4288-116.9408 116.9408-116.9408S503.808-96.4928 503.808-31.776c0 55.9104-39.5264 102.8096-91.9552 114.2784l0 70.8608c36.864 6.144 69.2224 25.6 91.9552 53.4528l55.296-39.1168c-3.072-10.4448-4.7104-21.504-4.7104-32.9728 0-64.512 52.4288-116.9408 116.9408-116.9408s116.9408 52.4288 116.9408 116.9408S736.0512 251.6672 671.5392 251.6672L671.5392 251.6672zM671.5392 525.28c31.3344 0 56.7296-25.3952 56.7296-56.7296 0-31.3344-25.3952-56.7296-56.7296-56.7296S614.6048 437.216 614.6048 468.5504C614.6048 499.8848 640.2048 525.28 671.5392 525.28L671.5392 525.28zM329.9328 631.776c0 31.3344 25.3952 56.7296 56.7296 56.7296s56.7296-25.3952 56.7296-56.7296S417.9968 575.0464 386.6624 575.0464 329.9328 600.6464 329.9328 631.776L329.9328 631.776zM443.392-31.776c0-31.3344-25.3952-56.7296-56.7296-56.7296S329.9328-63.1104 329.9328-31.776s25.3952 56.7296 56.7296 56.7296S443.392-0.6464 443.392-31.776L443.392-31.776zM386.6624 222.9952C343.04 222.9952 307.6096 258.4256 307.6096 302.048c0 43.6224 35.4304 79.0528 79.0528 79.0528 43.6224 0 79.0528-35.4304 79.0528-79.0528C465.92 258.4256 430.2848 222.9952 386.6624 222.9952L386.6624 222.9952zM671.5392 77.792c-31.3344 0-56.7296 25.3952-56.7296 56.7296s25.3952 56.7296 56.7296 56.7296 56.7296-25.3952 56.7296-56.7296S702.6688 77.792 671.5392 77.792L671.5392 77.792z" transform="translate(0, 812) scale(1, -1)"/>
</svg>
