<?xml version="1.0" encoding="utf-8"?>
<!DOCTYPE svg PUBLIC "-//W3C//DTD SVG 1.1//EN" "http://www.w3.org/Graphics/SVG/1.1/DTD/svg11.dtd">
<svg version="1.1" id="图形" xmlns="http://www.w3.org/2000/svg" xmlns:xlink="http://www.w3.org/1999/xlink" x="0px" y="0px" width="1024px" height="1024px" viewBox="0 0 1024 1024" enable-background="new 0 0 1024 1024" xml:space="preserve">
  <path fill="#272636" d="M702.6688 423.2896 524.288 526.304l0-206.6432L702.6688 423.2896M500.9408 319.8656 500.9408 526.5088l-178.5856-103.2192L500.9408 319.8656M489.472 546.1696l-178.3808 103.8336 0-206.848L489.472 546.1696M916.0704 299.5904 737.28 403.0144l0-206.4384L916.0704 299.5904M287.9488 443.1552l0 206.848-179.6096-103.8336L287.9488 443.1552M287.9488-50.0032l0 206.848-179.6096-103.424L287.9488-50.0032M714.1376 443.1552l0 206.848-178.176-103.8336L714.1376 443.1552M927.5392 73.2864 927.5392 279.7248l-178.176-103.0144L927.5392 73.2864M287.9488 196.576l0 206.848-179.6096-103.8336L287.9488 196.576M276.48 176.7104l-180.0192 103.0144 0-206.4384L276.48 176.7104M927.5392 319.8656 927.5392 526.5088l-178.176-103.2192L927.5392 319.8656M916.0704 546.1696 737.28 650.0032l0-206.848L916.0704 546.1696M916.0704 53.4208 737.28 156.8448l0-206.848L916.0704 53.4208M276.48 423.2896l-180.0192 103.2192 0-206.6432L276.48 423.2896" transform="translate(0, 812) scale(1, -1)"/>
</svg>
