<?xml version="1.0" encoding="utf-8"?>
<!DOCTYPE svg PUBLIC "-//W3C//DTD SVG 1.1//EN" "http://www.w3.org/Graphics/SVG/1.1/DTD/svg11.dtd">
<svg version="1.1" id="图形" xmlns="http://www.w3.org/2000/svg" xmlns:xlink="http://www.w3.org/1999/xlink" x="0px" y="0px" width="1024px" height="1024px" viewBox="0 0 1024 1024" enable-background="new 0 0 1024 1024" xml:space="preserve">
  <path fill="#272636" d="M497.4592 411.8208c-0.4096 86.016-1.2288 260.9152-5.9392 337.3056-1.4336-1.6384-2.6624-3.072-4.3008-4.9152-28.2624-22.1184-173.4656-143.7696-185.1392-390.9632-9.4208-195.9936 117.76-324.608 170.8032-369.664 13.1072 56.5248 29.9008 202.752 25.3952 350.4128C497.664 344.8512 497.664 372.9088 497.4592 411.8208zM515.2768-21.536c-2.6624-12.0832-5.7344-23.7568-9.0112-31.1296l-4.7104-9.216c7.5776-37.2736 6.5536-79.0528 6.5536-79.0528l25.1904-8.3968c0 0-5.12 66.56 2.048 98.7136 0.4096 1.4336 0.6144 2.6624 1.024 4.096C529.408-40.1728 520.192-29.9328 515.2768-21.536zM714.9568 417.9648C665.3952 635.6672 548.6592 707.1424 536.1664 734.3808c-0.4096 0.4096-0.8192 1.024-1.024 1.6384 2.8672-56.1152 4.5056-155.4432 5.3248-323.9936l0-0.4096c0.2048-36.864 0.2048-66.1504 0.6144-76.1856 2.8672-97.28-3.072-183.7056-8.6016-239.0016 0.6144-54.4768 19.8656-101.9904 31.1296-109.9776 4.5056 3.6864 9.8304 8.192 15.5648 13.5168 0.6144 0.4096 1.024 0.6144 1.024 0.6144 0 0.2048 0 0.2048 0 0.4096C639.5904 55.4688 753.4592 192.8896 714.9568 417.9648z" transform="translate(0, 812) scale(1, -1)"/>
</svg>
