<?xml version="1.0" encoding="utf-8"?>
<!DOCTYPE svg PUBLIC "-//W3C//DTD SVG 1.1//EN" "http://www.w3.org/Graphics/SVG/1.1/DTD/svg11.dtd">
<svg version="1.1" id="图形" xmlns="http://www.w3.org/2000/svg" xmlns:xlink="http://www.w3.org/1999/xlink" x="0px" y="0px" width="1024px" height="1024px" viewBox="0 0 1024 1024" enable-background="new 0 0 1024 1024" xml:space="preserve">
  <path fill="#272636" d="M216.4736 290.9888l15.36 17.8176 8.3968-21.9136c43.6224-113.664 140.4928-192.512 141.5168-193.3312 31.744-25.3952 66.3552-48.5376 101.7856-69.4272 64.7168-6.3488 119.3984-26.2144 156.8768-39.936 31.744-11.6736 68.608-16.384 105.0624-16.7936-58.5728 45.6704-92.3648 97.8944-94.4128 101.1712l-7.5776 11.6736 11.6736 7.5776c23.1424 14.7456 73.728 24.1664 110.7968 29.2864-82.1248 79.6672-182.8864 106.2912-183.9104 106.7008l-4.5056 1.2288-2.8672 3.6864c-1.2288 1.6384-29.4912 37.888-81.1008 164.0448-49.3568 120.832-155.0336 204.1856-156.0576 205.2096l-0.6144 0.6144c-80.4864 69.632-182.6816 72.0896-183.7056 72.0896L147.456 670.2784l-4.096 4.3008C116.736 702.6368 65.7408 720.0448 34.6112 718.816c-10.0352-0.4096-13.9264-2.6624-14.5408-3.4816-1.4336-2.2528-0.6144-9.0112 5.9392-20.2752 6.7584-11.8784 16.9984-24.9856 26.2144-36.2496 6.144-7.9872 11.6736-14.5408 15.36-20.2752 14.5408-22.528 17.8176-38.5024 18.2272-40.1408l0.2048-0.6144c6.5536-43.008 51.2-126.7712 62.0544-135.5776 17.408-13.7216 15.9744-34.4064 12.288-44.6464-22.1184-67.584-25.1904-127.7952-8.8064-178.7904 9.0112-28.0576 21.9136-48.128 33.1776-61.44C195.3792 263.7504 214.2208 288.3264 216.4736 290.9888zM861.5936-77.4464c-61.6448-11.264-152.9856-19.0464-221.184 6.144-56.9344 20.8896-153.6 56.1152-265.216 36.0448-111.616-20.0704-212.3776-53.8624-212.3776-53.8624s144.7936 33.5872 200.4992 36.0448c55.7056 2.4576 139.4688-5.5296 203.5712-33.1776 84.7872-36.864 214.8352-47.5136 308.4288-5.3248 93.7984 42.1888 129.2288 67.584 129.2288 67.584S923.4432-66.1824 861.5936-77.4464z" transform="translate(0, 812) scale(1, -1)"/>
</svg>
