<?xml version="1.0" encoding="utf-8"?>
<!DOCTYPE svg PUBLIC "-//W3C//DTD SVG 1.1//EN" "http://www.w3.org/Graphics/SVG/1.1/DTD/svg11.dtd">
<svg version="1.1" id="图形" xmlns="http://www.w3.org/2000/svg" xmlns:xlink="http://www.w3.org/1999/xlink" x="0px" y="0px" width="1024px" height="1024px" viewBox="0 0 1024 1024" enable-background="new 0 0 1024 1024" xml:space="preserve">
  <path fill="#272636" d="M492.544 329.696c-39.3216 0.6144-75.5712-35.0208-75.5712-74.3424 0-39.3216 36.2496-74.9568 75.5712-74.3424l182.272 1.024-44.6464-90.3168L395.6736 91.7184l-116.3264 204.8 117.1456 212.1728 249.4464 0 58.1632-119.3984L854.016 389.2928 759.6032 615.392l-20.48 41.7792-46.4896 0L352.8704 657.1712l-44.6464 0-20.48-38.0928L129.6384 331.5392l-20.48-36.2496 20.48-36.2496 158.1056-278.1184 21.2992-38.0928 43.8272 0 323.7888 0 46.4896 0 20.48 41.7792 118.1696 238.1824 53.0432 107.9296-120.0128 0L492.544 329.696z" transform="translate(0, 812) scale(1, -1)"/>
</svg>
