<?xml version="1.0" encoding="utf-8"?>
<!DOCTYPE svg PUBLIC "-//W3C//DTD SVG 1.1//EN" "http://www.w3.org/Graphics/SVG/1.1/DTD/svg11.dtd">
<svg version="1.1" id="图形" xmlns="http://www.w3.org/2000/svg" xmlns:xlink="http://www.w3.org/1999/xlink" x="0px" y="0px" width="1024px" height="1024px" viewBox="0 0 1024 1024" enable-background="new 0 0 1024 1024" xml:space="preserve">
  <path fill="#272636" d="M681.5744 414.2784l-72.0896 0 14.1312 74.9568 71.8848 0 6.9632 39.1168c7.168 38.912 19.456 65.1264 37.0688 78.6432 16.384 13.7216 45.2608 20.48 87.04 20.48L921.6 627.4752 907.8784 553.952 860.16 553.952c-16.7936 0-29.2864-2.6624-37.6832-7.7824-8.8064-5.9392-13.9264-14.5408-15.5648-25.8048l-5.5296-30.9248 95.0272 0L882.688 414.2784l-95.0272 0-55.296-304.3328L626.688 109.9456 681.5744 414.2784zM196.1984 489.2352l195.3792 0c58.7776 0 101.376-17.2032 127.7952-51.4048 19.0464-24.1664 28.672-55.296 28.672-93.3888 0-14.7456-1.6384-31.5392-4.9152-50.176-4.5056-25.8048-12.288-48.9472-23.1424-69.632C509.1328 204.1536 495.616 185.5168 479.232 168.928 458.752 147.8336 436.0192 132.8832 411.4432 123.872c-24.7808-9.4208-56.7296-13.9264-95.6416-13.9264l-87.04 0-24.7808-137.4208L102.4-27.4752 196.1984 489.2352zM282.8288 407.9296l-39.3216-217.088 61.0304 0c41.3696 0 72.4992 8.8064 93.184 26.624 19.6608 15.7696 33.3824 44.2368 40.96 85.4016 2.4576 14.1312 3.6864 26.624 3.6864 37.2736 0 19.0464-4.096 33.5872-12.4928 43.4176C417.1776 399.7376 391.168 407.9296 352.0512 407.9296L282.8288 407.9296z" transform="translate(0, 812) scale(1, -1)"/>
</svg>
