<?xml version="1.0" encoding="utf-8"?>
<!DOCTYPE svg PUBLIC "-//W3C//DTD SVG 1.1//EN" "http://www.w3.org/Graphics/SVG/1.1/DTD/svg11.dtd">
<svg version="1.1" id="图形" xmlns="http://www.w3.org/2000/svg" xmlns:xlink="http://www.w3.org/1999/xlink" x="0px" y="0px" width="1024px" height="1024px" viewBox="0 0 1024 1024" enable-background="new 0 0 1024 1024" xml:space="preserve">
  <path fill="#272636" d="M498.4832 162.784c3.6864 5.12 2.6624 11.8784 1.6384 15.36-2.048 7.5776-7.3728 14.336-12.9024 16.5888-6.7584 2.8672-10.4448 4.3008-18.432-4.7104 0 0 0 0 0 0-5.3248-6.144-9.4208-11.0592-12.6976-15.36-14.9504-19.0464-21.9136-25.6-66.56-34.816-9.216-1.8432-14.5408-3.8912-17.408-5.12 3.4816-2.4576 9.6256-5.3248 16.384-7.168C421.4784 119.3664 467.1488 118.752 498.4832 162.784zM405.7088 660.0384c-42.8032 13.9264-149.504 41.5744-214.4256-4.5056C151.552 627.2704 133.12 574.6368 137.0112 499.0656c1.2288-23.9616 16.384-108.9536 42.1888-193.536 29.9008-97.8944 63.6928-159.5392 92.9792-169.1648 4.5056-1.4336 18.0224-5.9392 37.888 17.6128 27.8528 33.5872 54.0672 62.0544 66.1504 74.9568-3.072 2.6624-5.9392 5.3248-8.8064 8.192-27.0336 28.2624-39.3216 67.3792-33.792 107.3152 5.9392 43.008 3.6864 81.1008 2.4576 101.376-0.4096 5.5296-0.6144 9.6256-0.6144 12.4928-0.2048 7.3728-1.8432 128.8192 68.4032 199.68C404.48 658.8096 405.0944 659.424 405.7088 660.0384zM480.8704 449.7088c-3.8912 18.2272-13.312 28.672-28.8768 32.1536-33.9968 7.7824-81.5104-17.8176-91.7504-26.8288 0-2.048 0.2048-4.7104 0.4096-7.5776 1.2288-21.2992 3.6864-60.8256-2.6624-106.2912-4.5056-32.3584 5.3248-64.1024 27.2384-86.8352 17.2032-17.8176 39.7312-27.8528 62.8736-27.8528 2.6624 10.8544 6.9632 22.528 11.6736 34.816l1.8432 4.9152c2.4576 6.3488 5.12 12.4928 7.9872 19.0464C483.5328 316.5888 501.1456 355.7056 480.8704 449.7088zM621.7728-89.5296c52.6336 11.264 71.2704 30.3104 80.0768 81.1008 6.5536 38.5024 19.6608 147.6608 21.504 170.8032-2.2528 46.2848 22.7328 55.7056 36.6592 59.5968-1.8432 2.4576-4.096 5.5296-6.5536 8.6016-7.9872 9.8304-18.6368 23.3472-27.0336 43.6224-1.2288 3.072-5.3248 10.4448-10.0352 18.8416-25.6 46.08-79.0528 141.7216-44.4416 191.0784 15.7696 22.7328 47.104 31.744 93.184 27.0336-6.144 18.2272-21.504 51.8144-49.7664 85.1968-32.768 38.7072-90.9312 85.4016-181.6576 86.8352-46.08 0.8192-83.7632-13.312-112.2304-41.984-45.056-45.4656-57.1392-117.3504-60.2112-155.8528 2.048 1.2288 4.3008 2.4576 6.7584 3.6864 11.4688 5.7344 34.4064 15.9744 59.392 18.432 41.7792 4.3008 69.2224-14.336 77.6192-52.4288 22.1184-101.7856 1.6384-147.0464-13.1072-179.8144-2.6624-6.144-5.3248-11.8784-7.3728-17.408l-1.8432-4.9152c-4.3008-11.6736-8.3968-22.528-10.6496-32.1536 10.8544 2.8672 20.0704-1.024 24.9856-3.072 12.4928-5.12 22.7328-17.6128 27.0336-32.5632 0.8192-2.4576 1.2288-5.12 1.6384-7.5776 0.2048-1.2288 0.4096-2.2528 0.4096-3.4816-2.8672-102.1952 1.2288-194.9696 9.4208-215.4496C548.0448-73.5552 567.296-101.2032 621.7728-89.5296zM708.8128 692.192c-28.2624 0.6144-53.248-2.8672-71.68-6.7584 42.8032-18.8416 74.1376-46.8992 95.4368-71.8848 39.3216-45.6704 58.5728-96.256 60.0064-113.0496 0.2048-2.6624 0-4.7104-0.4096-6.5536 0.6144-17.6128-1.6384-32.5632-3.8912-46.8992-1.8432-11.6736-3.6864-23.7568-4.096-37.888-0.4096-13.312 1.2288-27.4432 3.072-42.3936 4.3008-36.6592 9.4208-77.824-15.9744-119.3984 0.4096-0.6144 0.8192-1.024 1.2288-1.6384 1.024-1.2288 2.048-2.4576 2.8672-3.6864 97.6896 153.6 131.4816 331.776 100.7616 370.8928C836.608 663.9296 780.288 690.7584 708.8128 692.192zM788.8896 158.2784c22.7328 1.024 46.4896 5.9392 60.6208 12.6976 16.5888 7.7824 28.2624 16.1792 35.0208 22.7328-0.2048 0-0.4096 0-0.6144-0.2048-50.5856-10.4448-86.4256-9.0112-106.496 4.3008-1.2288 0.8192-2.4576 1.6384-3.4816 2.4576-1.6384-0.6144-3.4816-1.024-5.12-1.6384-11.4688-3.2768-22.1184-6.144-20.6848-35.0208C751.0016 161.1456 763.904 157.0496 788.8896 158.2784zM692.224 469.5744c-25.6-36.6592 24.3712-126.5664 45.8752-164.864 5.5296-9.8304 9.4208-16.9984 11.264-21.504 2.048-4.9152 4.3008-9.216 6.5536-13.312 14.7456 31.3344 10.8544 63.0784 7.168 93.7984-1.8432 15.36-3.6864 31.1296-3.2768 46.2848 0.4096 15.5648 2.4576 28.4672 4.3008 40.96 1.8432 11.4688 3.4816 22.528 3.6864 34.816C719.2576 491.6928 699.8016 480.4288 692.224 469.5744z" transform="translate(0, 812) scale(1, -1)"/>
</svg>
