<?xml version="1.0" encoding="utf-8"?>
<!DOCTYPE svg PUBLIC "-//W3C//DTD SVG 1.1//EN" "http://www.w3.org/Graphics/SVG/1.1/DTD/svg11.dtd">
<svg version="1.1" id="图形" xmlns="http://www.w3.org/2000/svg" xmlns:xlink="http://www.w3.org/1999/xlink" x="0px" y="0px" width="1024px" height="1024px" viewBox="0 0 1024 1024" enable-background="new 0 0 1024 1024" xml:space="preserve">
  <path fill="#272636" d="M821.6576 371.68 596.7872 371.68c-11.0592 0-20.2752 9.216-20.2752 20.2752l0 234.0864c0 17.408-13.9264 31.1296-31.1296 31.1296L464.896 657.1712c-17.408 0-31.1296-13.9264-31.1296-31.1296L433.7664 393.5936C433.5616 381.5104 423.936 371.68 411.648 371.68l-73.5232-0.6144c-12.0832 0-21.9136 9.8304-21.9136 21.9136l0.6144 233.0624c0 17.408-13.9264 31.1296-31.1296 31.1296l-80.2816 0c-17.408 0-31.1296-13.9264-31.1296-31.1296l0-655.5648c0-15.5648 12.6976-27.8528 27.8528-27.8528l620.3392 0c15.5648 0 27.8528 12.6976 27.8528 27.8528L850.3296 344.032C849.3056 359.5968 837.2224 371.68 821.6576 371.68L821.6576 371.68zM716.3904 125.3056c0-20.2752-16.1792-36.4544-36.4544-36.4544L616.448 88.8512c-20.2752 0-36.4544 16.1792-36.4544 36.4544l0 63.6928c0 20.2752 16.1792 36.4544 36.4544 36.4544L679.936 225.4528c20.2752 0 36.4544-16.1792 36.4544-36.4544L716.3904 125.3056 716.3904 125.3056z" transform="translate(0, 812) scale(1, -1)"/>
</svg>
