<?xml version="1.0" encoding="utf-8"?>
<!DOCTYPE svg PUBLIC "-//W3C//DTD SVG 1.1//EN" "http://www.w3.org/Graphics/SVG/1.1/DTD/svg11.dtd">
<svg version="1.1" id="图形" xmlns="http://www.w3.org/2000/svg" xmlns:xlink="http://www.w3.org/1999/xlink" x="0px" y="0px" width="1024px" height="1024px" viewBox="0 0 1024 1024" enable-background="new 0 0 1024 1024" xml:space="preserve">
  <path fill="#272636" d="M813.4656 682.3616 210.5344 682.3616C165.888 682.3616 129.6384 646.112 129.6384 601.4656l0-602.9312c0-44.6464 36.2496-80.896 80.896-80.896l602.9312 0c44.6464 0 80.896 36.2496 80.896 80.896L894.3616 601.4656C894.3616 646.112 858.112 682.3616 813.4656 682.3616zM564.4288 563.7824 780.288 563.7824l0-215.6544L564.4288 348.128 564.4288 563.7824zM346.5216 18.4c-67.3792 0-122.2656 54.6816-122.2656 122.2656 0 67.3792 54.6816 122.2656 122.2656 122.2656 67.3792 0 122.2656-54.6816 122.2656-122.2656C468.7872 73.2864 414.1056 18.4 346.5216 18.4zM417.9968 421.2416l16.7936-98.5088-88.4736 46.4896L258.048 322.7328l16.7936 98.5088-71.4752 69.632 98.9184 14.336 44.2368 89.4976 44.2368-89.4976 98.9184-14.336L417.9968 421.2416zM534.3232 22.496l138.0352 239.0016 138.0352-239.0016L534.3232 22.496z" transform="translate(0, 812) scale(1, -1)"/>
</svg>
