<?xml version="1.0" encoding="utf-8"?>
<!DOCTYPE svg PUBLIC "-//W3C//DTD SVG 1.1//EN" "http://www.w3.org/Graphics/SVG/1.1/DTD/svg11.dtd">
<svg version="1.1" id="图形" xmlns="http://www.w3.org/2000/svg" xmlns:xlink="http://www.w3.org/1999/xlink" x="0px" y="0px" width="1024px" height="1024px" viewBox="0 0 1024 1024" enable-background="new 0 0 1024 1024" xml:space="preserve">
  <path fill="#272636" d="M782.5408 553.7472 416.768 158.4832 876.544 370.4512C862.8224 440.6976 829.6448 503.776 782.5408 553.7472zM511.1808 671.5072c-50.5856 0-98.9184-10.24-142.9504-28.4672l-49.152-413.4912 245.1456 438.272C547.0208 670.0736 529.2032 671.5072 511.1808 671.5072zM880.0256 347.7184l-435.4048-243.712L853.1968 152.544c19.456 45.056 30.1056 94.6176 30.1056 146.8416C883.3024 315.7696 882.0736 331.9488 880.0256 347.7184zM719.4624-9.0432c48.7424 32.9728 89.088 77.2096 117.5552 128.8192l-382.976-75.9808L719.4624-9.0432zM586.752 663.7248 373.5552 201.696 769.024 567.4688C719.4624 615.1872 656.7936 649.184 586.752 663.7248zM542.3104-71.5072c41.1648 3.4816 80.4864 13.5168 116.736 29.2864l-214.4256 25.3952L542.3104-71.5072zM172.032 452.3712C155.2384 415.3024 144.384 374.9568 140.6976 332.768l57.7536-103.2192L172.032 452.3712zM336.0768 627.68C283.4432 599.6224 238.592 559.2768 204.8 510.5344L258.8672 238.9696 336.0768 627.68z" transform="translate(0, 812) scale(1, -1)"/>
</svg>
