<?xml version="1.0" encoding="utf-8"?>
<!DOCTYPE svg PUBLIC "-//W3C//DTD SVG 1.1//EN" "http://www.w3.org/Graphics/SVG/1.1/DTD/svg11.dtd">
<svg version="1.1" id="图形" xmlns="http://www.w3.org/2000/svg" xmlns:xlink="http://www.w3.org/1999/xlink" x="0px" y="0px" width="1024px" height="1024px" viewBox="0 0 1024 1024" enable-background="new 0 0 1024 1024" xml:space="preserve">
  <path fill="#272636" d="M228.267 186.453c0 0 334.72-37.44 466.24-106.88s248.107-78.4 128.213 12.587-400.747 192.747-594.453 94.293zM745.707 508.16c-156.267 64.533-345.707 48-435.84 24.853s-277.013-100.053-286.187-197.653c-5.12-54.72 27.947-93.653 76.8-121.067-0.96 3.093-1.813 6.080-2.773 8.96l-5.653 17.92 15.787 10.347c28.907 18.88 77.333 45.653 144.107 66.56 65.173 20.373 133.547 30.72 203.307 30.72 1.6 0 3.2 0 4.8-0.107l14.4 12.48-76.8 6.827 3.413 21.227 132.907-15.467-31.36-26.667c16.64-1.067 33.387-2.88 50.027-5.12 7.68 6.933 18.133 13.12 32.32 18.027 29.12 10.027 70.187-3.733 88.533-37.76 1.707-3.2 3.2-6.4 4.373-9.707 11.307-3.947 22.4-8.32 33.28-13.013 6.72 7.253 19.307 16.427 35.2 16.213 17.813-0.213 37.547-12.907 46.4-22.507 8.107-8.96 22.293-30.293 24.427-54.827 2.773-2.133 5.547-4.16 8.213-6.293 49.173-39.147 71.573-73.6 72.427-75.093l6.080-9.493-3.093-10.773c-0.747-2.453-1.707-5.333-3.52-8.853 35.093 20.053 78.613 54.507 91.733 106.667 23.040 91.733-86.933 209.173-243.307 273.6zM813.973 209.28c-5.547-16.32-18.027-28.053-40.107-28.693-31.573-0.853-57.387 28.16-69.333 51.733-7.573 14.827-7.893 31.467-4.587 45.013-5.653 2.347-11.413 4.693-17.28 6.933-0.747-23.040-13.013-43.84-37.12-50.347-37.227-10.027-76.053 6.613-96.213 31.253-9.813 11.947-18.027 33.28-11.627 53.76-21.333 2.56-42.24 4.053-62.507 4.693l-47.573-40.32 84.8-9.173-4.587-21.76-142.293 14.293 65.493 56.853c-135.68-4.907-243.84-49.813-309.653-92.8 0 0 21.547-67.947 19.84-81.92 0 0 5.973 4.16 37.867 14.507l-5.653 23.147 43.627 22.187c56.107 28.48 122.027 42.987 195.84 42.987 165.44 0 336.107-72.32 424.747-139.627 3.413-2.56 6.613-5.12 9.813-7.68 12.8 13.013 26.347 28.693 29.44 39.253-0.107 0-19.307 30.187-62.933 65.707zM651.52 276.693c-7.467-16.747-28.587-28.8-55.893-17.173s-31.36 38.933-26.453 52.373c4.48 12.267 16.32 21.653 26.24 24.96s33.92 1.707 45.973-11.84 17.707-31.573 10.133-48.32zM783.253 211.627c-14.827-13.973-39.787-1.92-50.027 14.4-10.347 16.32-9.707 35.627-5.333 47.040 0 0 10.56 21.013 30.933 17.173 20.373-3.84 30.72-23.893 33.493-35.307 2.773-11.52 5.76-29.44-9.067-43.307z" transform="translate(0, 812) scale(1, -1)"/>
</svg>
